# xmcd
#
# Track frame offsets: 
#        150
#        19707
#        34946
#        57159
#        78337
#        95289
#        110076
#        136153
#        155882
#        178707
#        195609
#
# Disc length: 2793 seconds
#
# Revision: 0
# Processed by: cddbd v1.5.1PL0 Copyright (c) Steve Scherf et al.
# Submitted via: ExactAudioCopy v0.95b2
#
DISCID=8e0ae70b
DTITLE=Hudson Blues Band, The - Now Appearing At 
DYEAR=1999
DGENRE=Blues
TTITLE0=Mr. Clean
TTITLE1=Tip On In
TTITLE2=I'm Tore Down
TTITLE3=All Your Love
TTITLE4=Crosscut Saw
TTITLE5=The Stumble
TTITLE6=Caledonia
TTITLE7=Sugar Sweet
TTITLE8=Shake Your Hips
TTITLE9=My Baby She's Got It
TTITLE10=I'll Go Crazy
EXTD=
EXTT0=
EXTT1=
EXTT2=
EXTT3=
EXTT4=
EXTT5=
EXTT6=
EXTT7=
EXTT8=
EXTT9=
EXTT10=
PLAYORDER=
